<svg xmlns="http://www.w3.org/2000/svg" width="74.557" height="36" viewBox="0 0 74.557 36"><g transform="translate(-912.129 -619.728)"><path d="M-64.075-35.7v13.954h10.592v-2.58h-7.524v-3.42h6.762V-30.13h-6.762v-2.99h7.368V-35.7Zm12.449,3.85v10.1h2.775v-5.863a2.856,2.856,0,0,1,.215-1.2,1.94,1.94,0,0,1,.518-.7,1.719,1.719,0,0,1,.625-.332,2.08,2.08,0,0,1,.518-.088,1.843,1.843,0,0,1,1.006.225,1.247,1.247,0,0,1,.489.6,2.5,2.5,0,0,1,.166.811q.02.44.02.889v5.667h2.775v-5.628a6.293,6.293,0,0,1,.068-.928,2.348,2.348,0,0,1,.274-.821,1.628,1.628,0,0,1,.567-.586,1.775,1.775,0,0,1,.948-.225,1.873,1.873,0,0,1,.928.2,1.3,1.3,0,0,1,.518.528A2.032,2.032,0,0,1-39-28.43q.039.449.039.958v5.726h2.775v-6.762a4.557,4.557,0,0,0-.274-1.671,2.865,2.865,0,0,0-.762-1.124,2.99,2.99,0,0,0-1.173-.625,5.389,5.389,0,0,0-1.485-.2,3.247,3.247,0,0,0-1.827.508,4.3,4.3,0,0,0-1.221,1.173,2.457,2.457,0,0,0-1.2-1.309,4.067,4.067,0,0,0-1.749-.371,3.573,3.573,0,0,0-1.769.43,3.952,3.952,0,0,0-1.319,1.212h-.039V-31.85Zm20.09,5.062a6.064,6.064,0,0,1,.117-1.192,3.041,3.041,0,0,1,.4-1.036,2.25,2.25,0,0,1,.752-.733,2.233,2.233,0,0,1,1.173-.283,2.286,2.286,0,0,1,1.182.283,2.222,2.222,0,0,1,.762.733,3.041,3.041,0,0,1,.4,1.036,6.064,6.064,0,0,1,.117,1.192,5.917,5.917,0,0,1-.117,1.182,3.15,3.15,0,0,1-.4,1.036,2.109,2.109,0,0,1-.762.733,2.352,2.352,0,0,1-1.182.274,2.3,2.3,0,0,1-1.173-.274,2.134,2.134,0,0,1-.752-.733,3.15,3.15,0,0,1-.4-1.036A5.918,5.918,0,0,1-31.536-26.788Zm-2.775,0A6.122,6.122,0,0,0-33.94-24.6a4.748,4.748,0,0,0,1.055,1.671,4.616,4.616,0,0,0,1.642,1.065,5.906,5.906,0,0,0,2.15.371,5.985,5.985,0,0,0,2.16-.371,4.6,4.6,0,0,0,1.651-1.065A4.748,4.748,0,0,0-24.227-24.6a6.122,6.122,0,0,0,.371-2.189,6.2,6.2,0,0,0-.371-2.2,4.731,4.731,0,0,0-1.055-1.681,4.71,4.71,0,0,0-1.651-1.075,5.847,5.847,0,0,0-2.16-.381,5.771,5.771,0,0,0-2.15.381,4.729,4.729,0,0,0-1.642,1.075,4.732,4.732,0,0,0-1.055,1.681A6.2,6.2,0,0,0-34.311-26.788Zm3.948-6.625V-35.7h-2.775v2.287Zm6.9,12.84v2.287a4.5,4.5,0,0,0,.879.078,6.79,6.79,0,0,0,1.739-.186,2.487,2.487,0,0,0,1.085-.567,2.093,2.093,0,0,0,.567-.948,4.828,4.828,0,0,0,.166-1.348V-31.85H-21.8v10.456q0,.567-.322.733a1.621,1.621,0,0,1-.752.166A1.768,1.768,0,0,1-23.465-20.574Zm-1.642-12.84V-35.7h-2.775v2.287Zm8.56,1.563v10.1h2.775v-10.1Z" transform="translate(976.846 655.428)" fill="#fff"/><path d="M-88.583-27.014h2.716a3.8,3.8,0,0,0-.469-1.69A3.818,3.818,0,0,0-87.4-29.9a4.617,4.617,0,0,0-1.485-.713,6.335,6.335,0,0,0-1.73-.235,5.511,5.511,0,0,0-2.189.41,4.607,4.607,0,0,0-1.622,1.143,4.9,4.9,0,0,0-1.006,1.739,6.732,6.732,0,0,0-.342,2.179,5.659,5.659,0,0,0,.371,2.081,4.85,4.85,0,0,0,1.036,1.632,4.615,4.615,0,0,0,1.612,1.065,5.53,5.53,0,0,0,2.081.381,5.046,5.046,0,0,0,3.3-1.055,4.578,4.578,0,0,0,1.563-3.068h-2.677a2.635,2.635,0,0,1-.674,1.5,2.033,2.033,0,0,1-1.534.557,1.96,1.96,0,0,1-1.094-.293,2.189,2.189,0,0,1-.713-.752,3.446,3.446,0,0,1-.381-1.026A5.49,5.49,0,0,1-93-25.47a5.726,5.726,0,0,1,.117-1.143,3.376,3.376,0,0,1,.4-1.055,2.407,2.407,0,0,1,.733-.782,1.949,1.949,0,0,1,1.114-.3A1.861,1.861,0,0,1-88.583-27.014Zm4.339-3.557v10.1h2.775v-4.554a5.585,5.585,0,0,1,.137-1.27,2.782,2.782,0,0,1,.459-1.026,2.234,2.234,0,0,1,.85-.694,2.957,2.957,0,0,1,1.29-.254,4.956,4.956,0,0,1,.528.029q.274.029.469.068v-2.58a2.164,2.164,0,0,0-.606-.1,3.314,3.314,0,0,0-1.016.156,3.724,3.724,0,0,0-.919.44,3.457,3.457,0,0,0-.762.684,3.413,3.413,0,0,0-.528.87h-.039v-1.876Zm12.586,11.354,4.221-11.354H-70.31l-2.208,6.918h-.039l-2.287-6.918H-77.8l3.537,9.478a1.668,1.668,0,0,1,.117.625,1.385,1.385,0,0,1-.264.821,1.078,1.078,0,0,1-.811.43,5.758,5.758,0,0,1-.821-.02l-.8-.078v2.287q.43.039.85.068t.85.029a4.025,4.025,0,0,0,2.228-.528A3.417,3.417,0,0,0-71.659-19.216Zm10.26-3.068a2.213,2.213,0,0,1-1.133-.274,2.2,2.2,0,0,1-.752-.713A3.08,3.08,0,0,1-63.7-24.3a5.613,5.613,0,0,1-.127-1.192A6.164,6.164,0,0,1-63.7-26.7a3.041,3.041,0,0,1,.4-1.036,2.281,2.281,0,0,1,.743-.733,2.141,2.141,0,0,1,1.143-.283,2.1,2.1,0,0,1,1.124.283,2.341,2.341,0,0,1,.752.743,3.174,3.174,0,0,1,.42,1.046A5.614,5.614,0,0,1-59-25.49a6.063,6.063,0,0,1-.117,1.192,2.938,2.938,0,0,1-.4,1.026,2.224,2.224,0,0,1-.743.713A2.2,2.2,0,0,1-61.4-22.285Zm-5.1-8.286V-16.93h2.775v-4.788h.039a3.274,3.274,0,0,0,1.3,1.124,3.934,3.934,0,0,0,1.73.381,4.174,4.174,0,0,0,1.945-.43A4.115,4.115,0,0,0-57.324-21.8a4.976,4.976,0,0,0,.831-1.661,6.944,6.944,0,0,0,.274-1.954,7.683,7.683,0,0,0-.274-2.062,5.034,5.034,0,0,0-.84-1.73,4.237,4.237,0,0,0-1.427-1.192,4.376,4.376,0,0,0-2.052-.449,3.957,3.957,0,0,0-1.72.371,3.052,3.052,0,0,0-1.29,1.192h-.039v-1.29Zm15.459,0V-33.6h-2.775v3.029H-55.5v1.857h1.681v5.961a2.582,2.582,0,0,0,.254,1.231,1.81,1.81,0,0,0,.694.723,2.88,2.88,0,0,0,1.016.342,8.1,8.1,0,0,0,1.221.088q.41,0,.84-.02a6.6,6.6,0,0,0,.782-.078v-2.15a3.887,3.887,0,0,1-.41.059q-.215.02-.449.02a1.358,1.358,0,0,1-.938-.235,1.358,1.358,0,0,1-.235-.938v-5h2.032v-1.857Zm3.44,0v10.1h2.775v-10.1Zm7.426,5.062a6.064,6.064,0,0,1,.117-1.192,3.042,3.042,0,0,1,.4-1.036,2.25,2.25,0,0,1,.752-.733,2.233,2.233,0,0,1,1.173-.283,2.286,2.286,0,0,1,1.182.283,2.222,2.222,0,0,1,.762.733,3.041,3.041,0,0,1,.4,1.036,6.064,6.064,0,0,1,.117,1.192,5.917,5.917,0,0,1-.117,1.182,3.15,3.15,0,0,1-.4,1.036,2.109,2.109,0,0,1-.762.733,2.352,2.352,0,0,1-1.182.274,2.3,2.3,0,0,1-1.173-.274,2.134,2.134,0,0,1-.752-.733,3.15,3.15,0,0,1-.4-1.036A5.917,5.917,0,0,1-40.175-25.509Zm-2.775,0a6.122,6.122,0,0,0,.371,2.189,4.748,4.748,0,0,0,1.055,1.671,4.617,4.617,0,0,0,1.642,1.065,5.906,5.906,0,0,0,2.15.371,5.985,5.985,0,0,0,2.16-.371,4.6,4.6,0,0,0,1.651-1.065,4.748,4.748,0,0,0,1.055-1.671,6.122,6.122,0,0,0,.371-2.189,6.2,6.2,0,0,0-.371-2.2,4.731,4.731,0,0,0-1.055-1.681,4.71,4.71,0,0,0-1.651-1.075,5.847,5.847,0,0,0-2.16-.381,5.771,5.771,0,0,0-2.15.381,4.729,4.729,0,0,0-1.642,1.075,4.732,4.732,0,0,0-1.055,1.681A6.2,6.2,0,0,0-42.95-25.509ZM-30.7-30.571v10.1h2.775v-5.3a3.748,3.748,0,0,1,.508-2.218,1.923,1.923,0,0,1,1.642-.674,1.514,1.514,0,0,1,1.388.616,3.541,3.541,0,0,1,.391,1.866v5.707h2.775v-6.215a8.143,8.143,0,0,0-.166-1.71,3.252,3.252,0,0,0-.577-1.309,2.709,2.709,0,0,0-1.124-.84,4.713,4.713,0,0,0-1.827-.3,3.956,3.956,0,0,0-1.72.4A3.184,3.184,0,0,0-28-29.164h-.059v-1.407Z" transform="translate(1007.904 672.657)" fill="#fff"/></g></svg>